<svg xmlns="http://www.w3.org/2000/svg" width="170" height="50" viewBox="0 0 170 50"><defs><style>.a{fill:#11a8ab;}.b{fill:#494a77;}.c{fill:#4fc4f6;}.d{fill:#e64c65;}.e{fill:#fcb150;}.f,.g{fill:#fff;}.f{fill-rule:evenodd;}</style></defs><g transform="translate(0 0.001)"><g transform="translate(0 -0.001)"><rect class="a" width="19.191" height="11.345" rx="5.672" transform="translate(18.337 19.16)"/><path class="b" d="M52.127,39.973a.569.569,0,0,1,.569.569v5.882a.569.569,0,0,1-.569.569H38.412a.569.569,0,0,1-.569-.569V40.542a.569.569,0,0,1,.569-.569H52.127m0-4.343H38.412A4.917,4.917,0,0,0,33.5,40.542v5.882a4.917,4.917,0,0,0,4.912,4.893H52.127a4.917,4.917,0,0,0,4.908-4.893V40.542a4.917,4.917,0,0,0-4.908-4.912Z" transform="translate(-17.334 -18.641)"/><rect class="c" width="19.191" height="11.345" rx="5.672" transform="translate(13.844 27.535)"/><path class="b" d="M42.817,57.513a.569.569,0,0,1,.584.569v5.863a.569.569,0,0,1-.569.569H29.1a.569.569,0,0,1-.569-.569V58.082a.569.569,0,0,1,.569-.569H42.817m0-4.343H29.1a4.917,4.917,0,0,0-4.912,4.912v5.863A4.917,4.917,0,0,0,29.1,68.858H42.817a4.917,4.917,0,0,0,4.927-4.912V58.082A4.917,4.917,0,0,0,42.817,53.17Z" transform="translate(-12.517 -27.818)"/><rect class="d" width="19.191" height="11.345" rx="5.672" transform="translate(10.114 10.71)"/><path class="b" d="M35.082,22.273a.569.569,0,0,1,.569.569v5.863a.569.569,0,0,1-.569.569H21.368a.569.569,0,0,1-.569-.569V22.842a.569.569,0,0,1,.569-.569H35.082m0-4.343H21.368a4.917,4.917,0,0,0-4.908,4.912v5.863a4.917,4.917,0,0,0,4.908,4.912H35.082a4.917,4.917,0,0,0,4.912-4.912V22.842a4.917,4.917,0,0,0-4.912-4.912Z" transform="translate(-8.517 -9.38)"/><rect class="e" width="19.191" height="11.345" rx="5.672" transform="translate(2.171 19.16)"/><path class="b" d="M18.622,39.973a.569.569,0,0,1,.569.569v5.882a.569.569,0,0,1-.569.569H4.912a.569.569,0,0,1-.569-.569V40.542a.569.569,0,0,1,.569-.569H18.622m0-4.343H4.912A4.917,4.917,0,0,0,0,40.542v5.882a4.917,4.917,0,0,0,4.912,4.893H18.622a4.917,4.917,0,0,0,4.912-4.893V40.542a4.917,4.917,0,0,0-4.912-4.912Z" transform="translate(0 -18.641)"/><path class="f" d="M42.666,49.922a2.728,2.728,0,0,1-2.736-2.711V41.617a2.724,2.724,0,0,1,2.736-2.706H65.472A2.467,2.467,0,0,0,67.4,38.1a2.854,2.854,0,0,0,.825-2.075,2.5,2.5,0,0,0-.8-1.912,2.613,2.613,0,0,0-1.93-.784H58.195a2.677,2.677,0,0,1-1.972-.772,2.626,2.626,0,0,1-.779-1.954V24.64a2.608,2.608,0,0,1,2.577-2.548h3.233a2.423,2.423,0,0,0,1.839-.789,2.5,2.5,0,0,0,.791-1.869,2.743,2.743,0,0,0-2.741-2.716h-4.02V18a2.5,2.5,0,0,1-.965,1.979,2.6,2.6,0,0,1-1.6.569H49.518a2.561,2.561,0,0,1-1.867-.717A2.513,2.513,0,0,1,46.884,18V16.565H42.666a2.724,2.724,0,0,1-2.736-2.706v-5.6A2.728,2.728,0,0,1,42.666,5.54H61.143A13.931,13.931,0,0,1,73.26,12.453a13.752,13.752,0,0,1,.709,12.5,14.167,14.167,0,0,1,3.59,4,13.755,13.755,0,0,1,.092,14.075,14.092,14.092,0,0,1-12.18,6.894Z" transform="translate(-20.662 -2.866)"/><path class="b" d="M58.809,5.306a11.707,11.707,0,0,1,10,17.992,12.052,12.052,0,0,1,4.565,4.383,11.619,11.619,0,0,1,.082,11.891,11.919,11.919,0,0,1-10.322,5.866H40.332a.562.562,0,0,1-.565-.56v-5.6a.553.553,0,0,1,.166-.394.562.562,0,0,1,.4-.161H63.138a4.642,4.642,0,0,0,3.5-1.488,5,5,0,0,0,1.414-3.555,4.651,4.651,0,0,0-1.448-3.464,4.8,4.8,0,0,0-3.474-1.4H55.861a.514.514,0,0,1-.434-.143.5.5,0,0,1-.145-.431V22.288a.4.4,0,0,1,.116-.254.353.353,0,0,1,.29-.144H58.92A4.608,4.608,0,0,0,62.3,20.456,4.862,4.862,0,0,0,58.8,12.2H54.645a1.987,1.987,0,0,0-1.414.574,1.8,1.8,0,0,0-.608,1.369v1.5a.348.348,0,0,1-.145.287.441.441,0,0,1-.261.11H47.185c-.309,0-.483-.129-.483-.4V12.034h-6.37a.562.562,0,0,1-.4-.161.553.553,0,0,1-.166-.394V5.89a.552.552,0,0,1,.155-.413.562.562,0,0,1,.41-.171H58.809m0-4.306H40.332a4.938,4.938,0,0,0-3.479,1.435A4.855,4.855,0,0,0,35.42,5.89v5.589a4.892,4.892,0,0,0,4.912,4.862h2.1a4.717,4.717,0,0,0,4.758,4.005h4.184a4.561,4.561,0,0,0-.434,1.943v5.957a4.764,4.764,0,0,0,1.412,3.48,4.847,4.847,0,0,0,3.51,1.4h7.277a.485.485,0,0,1,.439.177c.1.1.14.134.14.388a.738.738,0,0,1-.241.608c-.1.105-.121.124-.333.124H40.332A4.892,4.892,0,0,0,35.42,39.28v5.6a4.9,4.9,0,0,0,4.912,4.866H63.138A16.27,16.27,0,0,0,77.2,41.768,15.9,15.9,0,0,0,77.089,25.5a16.33,16.33,0,0,0-2.9-3.546A15.93,15.93,0,0,0,72.779,9.005,16.124,16.124,0,0,0,58.809,1Zm-1.93,15.489h1.93a.586.586,0,0,1,.569.565c0,.139,0,.191-.179.373s-.159.139-.28.139H56.537a4.6,4.6,0,0,0,.343-1.072Z" transform="translate(-18.328 -0.517)"/><path class="g" d="M140.045,50.047a4.867,4.867,0,0,1-1.7-.249,3.153,3.153,0,0,1-1.737-1.635l-.039-.086-5.665-12.665h-4.068V46.887a3.1,3.1,0,0,1-1.023,2.328,3.274,3.274,0,0,1-2.239.851h-4.468a3.274,3.274,0,0,1-2.225-.875,3.094,3.094,0,0,1-1.018-2.328V26.916a3.207,3.207,0,0,1,.951-2.291,3.268,3.268,0,0,1,2.311-.945h11.861a3.147,3.147,0,0,0,2.3-.928,2.89,2.89,0,0,0,.965-2.185,2.961,2.961,0,0,0-.965-2.242,3.147,3.147,0,0,0-2.34-.923h-4.131v.708a3.554,3.554,0,0,1-3.59,3.581h-3.783a3.626,3.626,0,0,1-3.6-3.581v-9.2a3.207,3.207,0,0,1,.951-2.291A3.268,3.268,0,0,1,119.1,5.67h11.861a15.227,15.227,0,0,1,13.135,7.4,14.607,14.607,0,0,1,.483,14.075,14.88,14.88,0,0,1-3.571,4.532l6.239,13.894a3.579,3.579,0,0,1,.454,1.7,2.761,2.761,0,0,1-.877,2.031,2.814,2.814,0,0,1-2.1.752Z" transform="translate(-60.166 -2.933)"/><path class="b" d="M128.629,5.476a13.058,13.058,0,0,1,11.263,6.35,12.492,12.492,0,0,1,.4,12.015,12.7,12.7,0,0,1-3.7,4.407.674.674,0,0,0-.338.593,2.4,2.4,0,0,0,.058.574l6.65,14.833a1.522,1.522,0,0,1,.227.742q0,.632-.8.632h-4.686a2.919,2.919,0,0,1-.965-.115,1.061,1.061,0,0,1-.545-.574l-5.96-13.4a.894.894,0,0,0-.483-.478,3.7,3.7,0,0,0-1.144-.115h-4.874a2.28,2.28,0,0,0-1.062.2.854.854,0,0,0-.372.828V44.555a.953.953,0,0,1-.314.742,1.106,1.106,0,0,1-.772.287h-4.468a1.106,1.106,0,0,1-.772-.287.953.953,0,0,1-.314-.742V24.588a1.075,1.075,0,0,1,1.086-1.086H128.61a5.332,5.332,0,0,0,3.86-1.546,5.018,5.018,0,0,0,1.578-3.718,5.089,5.089,0,0,0-1.578-3.775,5.332,5.332,0,0,0-3.86-1.546h-4.826a1.454,1.454,0,0,0-1.062.431,1.373,1.373,0,0,0-.429,1v1.435a1.429,1.429,0,0,1-.4,1,1.347,1.347,0,0,1-1.033.431h-3.783a1.47,1.47,0,0,1-1.433-1.431V6.563a1.075,1.075,0,0,1,1.086-1.086H128.59m0-4.306H116.768a5.447,5.447,0,0,0-3.847,1.577,5.355,5.355,0,0,0-1.587,3.816v9.211a5.675,5.675,0,0,0,1.689,4.034,6,6,0,0,0,.483.445,5.463,5.463,0,0,0-.608.526,5.341,5.341,0,0,0-1.578,3.828V44.55a5.243,5.243,0,0,0,1.732,3.928,5.479,5.479,0,0,0,3.7,1.407h4.468a5.493,5.493,0,0,0,3.706-1.436,5.243,5.243,0,0,0,1.723-3.919V35.244h.483L132.2,46.637l.039.086.043.086a5.291,5.291,0,0,0,2.944,2.7,6.944,6.944,0,0,0,2.413.378h4.7a4.931,4.931,0,0,0,5.144-4.938,5.674,5.674,0,0,0-.608-2.637l-5.588-12.441a17.088,17.088,0,0,0,2.9-4.067,16.767,16.767,0,0,0-.54-16.164,17.434,17.434,0,0,0-15.012-8.46Zm-2.147,16.049h2.147a.97.97,0,0,1,.816.3.819.819,0,0,1,.285.713.758.758,0,0,1-.285.656.97.97,0,0,1-.816.3H125.5a5.76,5.76,0,0,0,.965-1.971Z" transform="translate(-57.825 -0.605)"/><path class="g" d="M179.492,50.421a3.239,3.239,0,0,1-2.316-.956,3.122,3.122,0,0,1-.955-2.209V9.487a3.152,3.152,0,0,1,1.037-2.347,3.25,3.25,0,0,1,2.234-.87h5.7a3.18,3.18,0,0,1,2.254.956,3.217,3.217,0,0,1,.965,2.285V47.256a3.183,3.183,0,0,1-3.2,3.174Z" transform="translate(-91.484 -3.244)"/><path class="b" d="M182.843,6.061a.969.969,0,0,1,.714.311,1.048,1.048,0,0,1,.314.766v37.79a1.024,1.024,0,0,1-.285.713.969.969,0,0,1-.743.311h-5.68a1.042,1.042,0,0,1-.767-.311.977.977,0,0,1-.314-.713V7.128a1,1,0,0,1,.343-.766,1.081,1.081,0,0,1,.743-.311h5.7m0-4.306h-5.7a5.464,5.464,0,0,0-3.682,1.435,5.281,5.281,0,0,0-1.761,3.947v37.8a5.4,5.4,0,0,0,5.443,5.321h5.7a5.341,5.341,0,0,0,5.352-5.321V7.128a5.389,5.389,0,0,0-5.366-5.388Z" transform="translate(-89.156 -0.9)"/><path class="g" d="M220.409,50.176a21.957,21.957,0,0,1-11.33-3.07,22.989,22.989,0,0,1,0-39.492,21.81,21.81,0,0,1,11.34-3.1,22.051,22.051,0,0,1,9.255,1.985,22.834,22.834,0,0,1,7.4,5.375,2.936,2.936,0,0,1,.816,2.042,2.892,2.892,0,0,1-1.062,2.276L232.734,19.7a3.064,3.064,0,0,1-2.1.851,2.862,2.862,0,0,1-2.22-1.028,11.019,11.019,0,0,0-3.61-2.587,10.7,10.7,0,0,0-4.391-.933,10.392,10.392,0,0,0-5.487,1.506,11.458,11.458,0,0,0,0,19.646,10.392,10.392,0,0,0,5.487,1.506,10.568,10.568,0,0,0,4.164-.832,11.185,11.185,0,0,0,3.532-2.391l.043-.043.048-.043a3.806,3.806,0,0,1,2.543-1.014,3.245,3.245,0,0,1,2.258.837l1.12.928,2.234,2a3.394,3.394,0,0,1,1.37,2.759,3.1,3.1,0,0,1-.883,2.171,22.122,22.122,0,0,1-16.431,7.135Z" transform="translate(-102.79 -2.333)"/><path class="b" d="M218.081,4.307a19.777,19.777,0,0,1,8.343,1.785,20.566,20.566,0,0,1,6.727,4.915.782.782,0,0,1,.232.574.768.768,0,0,1-.29.637l-4.155,3.575a.881.881,0,0,1-.637.287.707.707,0,0,1-.579-.287,13.116,13.116,0,0,0-4.343-3.14,12.785,12.785,0,0,0-5.284-1.125,12.625,12.625,0,0,0-6.611,1.814,13.611,13.611,0,0,0,0,23.346,12.968,12.968,0,0,0,11.62.79,13.279,13.279,0,0,0,4.213-2.872,1.633,1.633,0,0,1,1.1-.479,1.1,1.1,0,0,1,.806.287l1.124.962,2.311,2.077a1.27,1.27,0,0,1,.579,1.1.953.953,0,0,1-.29.694A20.086,20.086,0,0,1,218.1,45.7a19.7,19.7,0,0,1-10.22-2.766,20.87,20.87,0,0,1,0-35.828,19.554,19.554,0,0,1,10.2-2.8m0-4.307a23.953,23.953,0,0,0-12.46,3.412,25.16,25.16,0,0,0,.014,43.213A24.1,24.1,0,0,0,218.081,50a24.409,24.409,0,0,0,18-7.816,5.241,5.241,0,0,0,1.448-3.647,5.559,5.559,0,0,0-2.138-4.408l-2.152-1.943-.053-.048-.053-.048-1.018-.857a5.479,5.479,0,0,0-3.7-1.374,5.953,5.953,0,0,0-3.991,1.555l-.1.086-.092.091a8.9,8.9,0,0,1-2.847,1.914,8.594,8.594,0,0,1-7.673-.536,9.323,9.323,0,0,1,0-15.971,8.254,8.254,0,0,1,4.343-1.2,8.382,8.382,0,0,1,3.494.742,8.738,8.738,0,0,1,2.9,2.058,5.065,5.065,0,0,0,3.86,1.756,5.225,5.225,0,0,0,3.561-1.407l4.044-3.475a5.121,5.121,0,0,0,.429-7.423,24.982,24.982,0,0,0-8.092-5.868A24.209,24.209,0,0,0,218.081,0Z" transform="translate(-100.466 0.001)"/><path class="g" d="M302.706,50.089h-.053a6.747,6.747,0,0,1-2.577-.521,4.331,4.331,0,0,1-1.747-1.5l-6.08-8.649-.024-.038a4.049,4.049,0,0,1-.738-2.18,3.842,3.842,0,0,1,.931-2.424l.072-.086q.439-.478,1.018-1.181c.415-.478.816-.956,1.2-1.377l1.144-1.358a3.131,3.131,0,0,1,2.5-1.267A3.187,3.187,0,0,1,301,30.941l10.389,14.682.072.148a3.027,3.027,0,0,1,.338,1.353,2.976,2.976,0,0,1-3.084,2.95h-6.013Zm-21.942,0a3.237,3.237,0,0,1-3.2-3.179V8.982a3.281,3.281,0,0,1,3.223-3.242h6.157a3.189,3.189,0,0,1,2.249.956,3.222,3.222,0,0,1,.965,2.295v7.262l7.793-9.122a3.738,3.738,0,0,1,2.9-1.386h8.2a2.71,2.71,0,0,1,2.683,1.434,2.529,2.529,0,0,1-.261,2.716l-.039.053L290.541,34.33a1.938,1.938,0,0,0-.4,1.348V46.909a3.191,3.191,0,0,1-3.2,3.179Z" transform="translate(-144.181 -2.97)"/><path class="b" d="M306.728,5.536c.42,0,.666.077.743.23a.409.409,0,0,1-.058.478L286.567,30.594a4.107,4.107,0,0,0-.917,2.742V44.581a1.034,1.034,0,0,1-.285.713.969.969,0,0,1-.753.316h-6.177a.969.969,0,0,1-.714-.316.982.982,0,0,1-.314-.713V6.622a1.048,1.048,0,0,1,.314-.77.969.969,0,0,1,.714-.316h6.177a.993.993,0,0,1,.714.316,1.053,1.053,0,0,1,.314.77V19.771L297.265,6.162a1.573,1.573,0,0,1,1.259-.627h8.2M296.02,29.341a1.01,1.01,0,0,1,.859.478L307.186,44.4a.923.923,0,0,1,.116.4q0,.742-1.033.8h-5.844a4.906,4.906,0,0,1-1.747-.316,2.161,2.161,0,0,1-.888-.77L291.72,35.9a2.076,2.076,0,0,1-.4-1.029,1.773,1.773,0,0,1,.458-1.086q.458-.517,1.062-1.23t1.173-1.345l1.2-1.435a.966.966,0,0,1,.8-.478M306.723,1.21h-8.2a5.9,5.9,0,0,0-4.594,2.177l-3.947,4.622V6.622a5.35,5.35,0,0,0-1.568-3.8h0a5.33,5.33,0,0,0-3.8-1.593h-6.177a5.4,5.4,0,0,0-5.376,5.407V44.581a5.4,5.4,0,0,0,5.376,5.335h6.177a5.35,5.35,0,0,0,5.376-5.335V40.963l4.213,5.991a6.533,6.533,0,0,0,2.606,2.23,8.8,8.8,0,0,0,3.407.727h6.273a5.084,5.084,0,0,0,4.57-7.412l-.145-.3-.188-.268L300.44,27.388a5.359,5.359,0,0,0-3.5-2.3L310.709,9l.087-.1.082-.105a4.69,4.69,0,0,0,.483-4.952,4.891,4.891,0,0,0-4.632-2.622Z" transform="translate(-141.852 -0.626)"/><rect class="a" width="14.848" height="7.002" rx="1.18" transform="translate(20.509 21.332)"/><rect class="c" width="14.848" height="7.002" rx="1.18" transform="translate(16.016 29.715)"/><rect class="d" width="14.848" height="7.002" rx="1.18" transform="translate(12.286 12.872)"/><rect class="e" width="14.848" height="7.002" rx="1.18" transform="translate(4.343 21.332)"/><path class="f" d="M79.718,38.333a11.345,11.345,0,0,1-1.6,5.894A11.924,11.924,0,0,1,67.8,50.058H44.994a.562.562,0,0,1-.565-.559V43.911a.551.551,0,0,1,.166-.393.563.563,0,0,1,.4-.161H67.8a4.646,4.646,0,0,0,3.5-1.485,4.987,4.987,0,0,0,1.414-3.549,4.638,4.638,0,0,0-1.448-3.458,4.808,4.808,0,0,0-3.474-1.4H60.522a.515.515,0,0,1-.434-.143.5.5,0,0,1-.145-.43V26.951a.4.4,0,0,1,.116-.253.353.353,0,0,1,.29-.143h3.233a4.612,4.612,0,0,0,3.378-1.433,4.853,4.853,0,0,0-3.5-8.244H59.306a1.989,1.989,0,0,0-1.414.573,1.792,1.792,0,0,0-.608,1.366v1.5a.347.347,0,0,1-.145.287.441.441,0,0,1-.261.11H51.846c-.309,0-.483-.129-.483-.4v-3.6h-6.37a.563.563,0,0,1-.4-.161.551.551,0,0,1-.166-.393V10.582a.551.551,0,0,1,.155-.412.563.563,0,0,1,.41-.171H63.471A11.828,11.828,0,0,1,73.73,15.831a11.59,11.59,0,0,1-.256,12.127,12.042,12.042,0,0,1,4.565,4.375A11.332,11.332,0,0,1,79.718,38.333Z" transform="translate(-22.989 -5.174)"/><path class="g" d="M120.643,49.918a.951.951,0,0,1-.314-.74V29.246a1.074,1.074,0,0,1,1.086-1.084h11.861a5.337,5.337,0,0,0,3.86-1.543,5,5,0,0,0,1.578-3.711,5.075,5.075,0,0,0-1.578-3.768,5.337,5.337,0,0,0-3.86-1.543H128.45a1.455,1.455,0,0,0-1.062.43,1.369,1.369,0,0,0-.429,1v1.433a1.425,1.425,0,0,1-.4,1,1.348,1.348,0,0,1-1.033.43h-3.783a1.469,1.469,0,0,1-1.433-1.428v-9.2A1.074,1.074,0,0,1,121.4,10.17h11.861a13.063,13.063,0,0,1,11.263,6.338,12.449,12.449,0,0,1,.4,11.993,12.679,12.679,0,0,1-3.7,4.4.672.672,0,0,0-.314.592,2.393,2.393,0,0,0,.058.573l6.65,14.807a1.517,1.517,0,0,1,.227.74q0,.63-.8.63h-4.686a2.923,2.923,0,0,1-.965-.115,1.06,1.06,0,0,1-.545-.573l-5.96-13.374a.893.893,0,0,0-.483-.478,3.708,3.708,0,0,0-1.144-.115h-4.874a2.283,2.283,0,0,0-1.062.2.851.851,0,0,0-.372.826V49.178a.951.951,0,0,1-.314.74,1.107,1.107,0,0,1-.772.287H121.4a1.107,1.107,0,0,1-.758-.287Z" transform="translate(-62.48 -5.262)"/><path class="g" d="M181.034,50.252a.974.974,0,0,1-.314-.712V11.825a1,1,0,0,1,.343-.764,1.082,1.082,0,0,1,.743-.31h5.7a.97.97,0,0,1,.714.31,1.045,1.045,0,0,1,.314.764v37.73a1.021,1.021,0,0,1-.285.712.97.97,0,0,1-.743.31H181.82A1.043,1.043,0,0,1,181.034,50.252Z" transform="translate(-93.812 -5.562)"/><path class="g" d="M212.522,47.551a20.816,20.816,0,0,1,0-35.766A19.58,19.58,0,0,1,222.738,9a19.806,19.806,0,0,1,8.343,1.782,20.565,20.565,0,0,1,6.727,4.907.779.779,0,0,1,.232.573.766.766,0,0,1-.29.635L233.6,20.466a.882.882,0,0,1-.637.287.707.707,0,0,1-.579-.287,13.115,13.115,0,0,0-4.343-3.134,12.8,12.8,0,0,0-5.284-1.123,12.641,12.641,0,0,0-6.611,1.811,13.576,13.576,0,0,0,0,23.306,12.988,12.988,0,0,0,11.62.788,13.28,13.28,0,0,0,4.213-2.867,1.634,1.634,0,0,1,1.1-.478,1.1,1.1,0,0,1,.806.287l1.124.96,2.311,2.074a1.267,1.267,0,0,1,.579,1.094.951.951,0,0,1-.29.693,20.1,20.1,0,0,1-14.839,6.445A19.726,19.726,0,0,1,212.522,47.551Z" transform="translate(-105.114 -4.656)"/><path class="g" d="M282.383,49.935a.979.979,0,0,1-.314-.712V11.334a1.045,1.045,0,0,1,.314-.769.97.97,0,0,1,.714-.315h6.177a.994.994,0,0,1,.714.315,1.05,1.05,0,0,1,.314.769V24.459l11.625-13.584a1.574,1.574,0,0,1,1.259-.626h8.2c.42,0,.666.076.743.229a.408.408,0,0,1-.058.478L291.229,35.263A4.094,4.094,0,0,0,290.312,38V49.224a1.03,1.03,0,0,1-.285.712.97.97,0,0,1-.753.315H283.1A.97.97,0,0,1,282.383,49.935Zm20.962,0a2.16,2.16,0,0,1-.888-.769l-6.071-8.6a2.07,2.07,0,0,1-.4-1.027,1.768,1.768,0,0,1,.458-1.084q.458-.516,1.062-1.227t1.173-1.342l1.2-1.433a.967.967,0,0,1,.8-.478,1.01,1.01,0,0,1,.859.511l10.307,14.553a.92.92,0,0,1,.116.4q0,.74-1.033.8h-5.844a4.914,4.914,0,0,1-1.747-.306Z" transform="translate(-146.514 -5.303)"/></g></g></svg>